<svg width="108" height="108" viewBox="0 0 108 108" fill="none" xmlns="http://www.w3.org/2000/svg">
<g clip-path="url(#clip0_36_10)">
<path d="M71.5717 34.6343L113 76.0625L89.709 119.077L40.6492 70.0168L53.5336 77.4501L70.8779 60.1057L71.5717 34.6343Z" fill="url(#paint0_linear_36_10)"/>
<path d="M71.5124 34.555C71.1457 34.1883 70.7096 34 70.214 34H36.8534C36.3479 34 35.9217 34.1883 35.555 34.555C35.1883 34.9217 35 35.3479 35 35.8534V58.0938C35 59.749 35.3271 61.4041 35.9713 63.0295C36.6155 64.6648 37.4183 66.1119 38.3797 67.3706C39.3311 68.6392 40.4709 69.8682 41.799 71.0575C43.1172 72.2567 44.3461 73.2478 45.4661 74.0407C46.586 74.8336 47.7555 75.5769 48.9746 76.2806C50.1937 76.9843 51.0559 77.46 51.5713 77.7177C52.0867 77.9655 52.493 78.1637 52.8003 78.2926C53.0282 78.4115 53.2859 78.471 53.5535 78.471C53.8211 78.471 54.0788 78.4115 54.3068 78.2926C54.614 78.1538 55.0303 77.9655 55.5357 77.7177C56.0511 77.4699 56.9134 76.9843 58.1324 76.2806C59.3515 75.5769 60.521 74.8237 61.6409 74.0407C62.7609 73.2478 63.98 72.2567 65.308 71.0575C66.6262 69.8582 67.766 68.6293 68.7274 67.3706C69.6788 66.1019 70.4816 64.6549 71.1258 63.0295C71.7701 61.3942 72.0971 59.749 72.0971 58.0938V35.8534C72.0674 35.3479 71.8791 34.9217 71.5124 34.555ZM67.211 58.3019C67.211 66.3497 53.5337 73.2875 53.5337 73.2875V38.7573H67.211C67.211 38.7573 67.211 50.2542 67.211 58.3019Z" fill="white"/>
<path d="M55 49C55 47.3431 56.3431 46 58 46H107C108.657 46 110 47.3431 110 49V60C110 61.6569 108.657 63 107 63H58C56.3431 63 55 61.6569 55 60V49Z" fill="#6795E8"/>
<path d="M57.116 50.4336H59.782C60.9226 50.4336 61.7859 50.5938 62.3718 50.9141C62.9578 51.2344 63.2507 51.7969 63.2507 52.6016C63.2507 52.9258 63.198 53.2188 63.0925 53.4805C62.991 53.7422 62.8425 53.957 62.6472 54.125C62.4519 54.293 62.2136 54.4023 61.9324 54.4531V54.5117C62.2175 54.5703 62.4753 54.6719 62.7058 54.8164C62.9363 54.957 63.1199 55.1641 63.2566 55.4375C63.3972 55.707 63.4675 56.0664 63.4675 56.5156C63.4675 57.0352 63.3406 57.4805 63.0867 57.8516C62.8328 58.2227 62.4695 58.5078 61.9968 58.707C61.5281 58.9023 60.9695 59 60.321 59H57.116V50.4336ZM58.9324 53.8262H59.9871C60.5144 53.8262 60.8796 53.7441 61.0828 53.5801C61.2859 53.4121 61.3875 53.166 61.3875 52.8418C61.3875 52.5137 61.2664 52.2793 61.0242 52.1387C60.7859 51.9941 60.407 51.9219 59.8875 51.9219H58.9324V53.8262ZM58.9324 55.2676V57.5H60.116C60.6628 57.5 61.0437 57.3945 61.2585 57.1836C61.4734 56.9727 61.5808 56.6895 61.5808 56.334C61.5808 56.123 61.5339 55.9375 61.4402 55.7773C61.3464 55.6172 61.1882 55.4922 60.9656 55.4023C60.7468 55.3125 60.4441 55.2676 60.0574 55.2676H58.9324ZM70.1121 59H65.1785V50.4336H70.1121V51.9219H66.9949V53.8027H69.8953V55.291H66.9949V57.5H70.1121V59ZM75.2097 59H73.3933V51.9453H71.0671V50.4336H77.5359V51.9453H75.2097V59ZM84.0984 59L83.4773 56.9609H80.3542L79.7332 59H77.7761L80.7996 50.3984H83.0203L86.0554 59H84.0984ZM83.0437 55.4375L82.4226 53.4453C82.3835 53.3125 82.3308 53.1426 82.2644 52.9355C82.2019 52.7246 82.1375 52.5117 82.071 52.2969C82.0085 52.0781 81.9578 51.8887 81.9187 51.7285C81.8796 51.8887 81.825 52.0879 81.7546 52.3262C81.6882 52.5605 81.6238 52.7832 81.5613 52.9941C81.4988 53.2051 81.4539 53.3555 81.4265 53.4453L80.8113 55.4375H83.0437Z" fill="#212529"/>
</g>
<defs>
<linearGradient id="paint0_linear_36_10" x1="37.8512" y1="38.8122" x2="89.011" y2="89.972" gradientUnits="userSpaceOnUse">
<stop stop-opacity="0.247059"/>
<stop offset="1" stop-opacity="0"/>
</linearGradient>
<clipPath id="clip0_36_10">
<rect width="108" height="108" fill="white"/>
</clipPath>
</defs>
</svg>
