<svg width="108" height="108" viewBox="0 0 108 108" fill="none" xmlns="http://www.w3.org/2000/svg">
<g clip-path="url(#clip0_41_29)">
<path fill-rule="evenodd" clip-rule="evenodd" d="M70.214 34C70.7096 34 71.1457 34.1883 71.5124 34.555C71.8791 34.9217 72.0674 35.3479 72.0971 35.8534V50.4336H71.0669V51.9453H72.0971V58.0938C72.0971 59.749 71.7701 61.3942 71.1258 63.0295C70.4816 64.6549 69.6788 66.1019 68.7274 67.3706C67.766 68.6293 66.6262 69.8582 65.308 71.0575C63.98 72.2567 62.7609 73.2478 61.6409 74.0407C60.521 74.8237 59.3515 75.5769 58.1324 76.2806C56.9134 76.9843 56.0511 77.4699 55.5357 77.7177C55.0303 77.9655 54.614 78.1538 54.3068 78.2926C54.0788 78.4115 53.8211 78.471 53.5535 78.471C53.2859 78.471 53.0282 78.4115 52.8003 78.2926C52.5297 78.1791 52.1822 78.0118 51.7511 77.8042C51.6927 77.7761 51.6328 77.7473 51.5713 77.7177C51.0559 77.46 50.1937 76.9843 48.9746 76.2806C47.7555 75.5769 46.586 74.8336 45.4661 74.0407C44.3461 73.2478 43.1172 72.2567 41.799 71.0575C40.4709 69.8682 39.3311 68.6392 38.3797 67.3706C37.4183 66.1119 36.6155 64.6648 35.9713 63.0295C35.3271 61.4041 35 59.749 35 58.0938V35.8534C35 35.3479 35.1883 34.9217 35.555 34.555C35.9217 34.1883 36.3479 34 36.8534 34H70.214ZM67.211 57.5H70.1118V59H67.177C66.4282 66.7468 53.5337 73.2875 53.5337 73.2875V38.7573H67.211V50.4336H70.1118V51.9219H67.211V53.8027H69.895V55.291H67.211V57.5Z" fill="white"/>
<path fill-rule="evenodd" clip-rule="evenodd" d="M58 46C56.3431 46 55 47.3431 55 49V60C55 61.6569 56.3431 63 58 63H107C108.657 63 110 61.6569 110 60V49C110 47.3431 108.657 46 107 46H58ZM59.7817 50.4336H57.1157V59H60.3208C60.9692 59 61.5278 58.9023 61.9966 58.707C62.4692 58.5078 62.8325 58.2227 63.0864 57.8516C63.3403 57.4805 63.4673 57.0352 63.4673 56.5156C63.4673 56.0664 63.397 55.707 63.2563 55.4375C63.1196 55.1641 62.936 54.957 62.7056 54.8164C62.4751 54.6719 62.2173 54.5703 61.9321 54.5117V54.4531C62.2134 54.4023 62.4517 54.293 62.647 54.125C62.8423 53.957 62.9907 53.7422 63.0923 53.4805C63.1978 53.2188 63.2505 52.9258 63.2505 52.6016C63.2505 51.7969 62.9575 51.2344 62.3716 50.9141C61.7856 50.5938 60.9224 50.4336 59.7817 50.4336ZM59.9868 53.8262H58.9321V51.9219H59.8872C60.4067 51.9219 60.7856 51.9941 61.0239 52.1387C61.2661 52.2793 61.3872 52.5137 61.3872 52.8418C61.3872 53.166 61.2856 53.4121 61.0825 53.5801C60.8794 53.7441 60.5142 53.8262 59.9868 53.8262ZM58.9321 57.5V55.2676H60.0571C60.4438 55.2676 60.7466 55.3125 60.9653 55.4023C61.188 55.4922 61.3462 55.6172 61.4399 55.7773C61.5337 55.9375 61.5806 56.123 61.5806 56.334C61.5806 56.6895 61.4731 56.9727 61.2583 57.1836C61.0435 57.3945 60.6626 57.5 60.1157 57.5H58.9321ZM65.1782 59H70.1118V57.5H66.9946V55.291H69.895V53.8027H66.9946V51.9219H70.1118V50.4336H65.1782V59ZM73.3931 59H75.2095V51.9453H77.5356V50.4336H71.0669V51.9453H73.3931V59ZM83.4771 56.9609L84.0981 59H86.0552L83.02 50.3984H80.7993L77.7759 59H79.7329L80.354 56.9609H83.4771ZM82.4224 53.4453L83.0435 55.4375H80.811L81.4263 53.4453C81.4536 53.3555 81.4985 53.2051 81.561 52.9941C81.6235 52.7832 81.688 52.5605 81.7544 52.3262C81.8247 52.0879 81.8794 51.8887 81.9185 51.7285C81.9575 51.8887 82.0083 52.0781 82.0708 52.2969C82.1372 52.5117 82.2017 52.7246 82.2642 52.9355C82.3306 53.1426 82.3833 53.3125 82.4224 53.4453Z" fill="#6795E8"/>
</g>
<defs>
<clipPath id="clip0_41_29">
<rect width="108" height="108" fill="white"/>
</clipPath>
</defs>
</svg>
