<svg width="108" height="108" viewBox="0 0 108 108" fill="none" xmlns="http://www.w3.org/2000/svg">
<g clip-path="url(#clip0_34_2)">
<path d="M71.5717 34.6343L113 76.0625L89.709 119.077L40.6492 70.0168L53.5336 77.4501L70.8779 60.1057L71.5717 34.6343Z" fill="url(#paint0_linear_34_2)"/>
<path d="M71.5124 34.555C71.1457 34.1883 70.7096 34 70.214 34H36.8534C36.3479 34 35.9217 34.1883 35.555 34.555C35.1883 34.9217 35 35.3479 35 35.8534V58.0938C35 59.749 35.3271 61.4041 35.9713 63.0295C36.6155 64.6648 37.4183 66.1119 38.3797 67.3706C39.3311 68.6392 40.4709 69.8682 41.799 71.0575C43.1172 72.2567 44.3461 73.2478 45.4661 74.0407C46.586 74.8336 47.7555 75.5769 48.9746 76.2806C50.1937 76.9843 51.0559 77.46 51.5713 77.7177C52.0867 77.9655 52.493 78.1637 52.8003 78.2926C53.0282 78.4115 53.2859 78.471 53.5535 78.471C53.8211 78.471 54.0788 78.4115 54.3068 78.2926C54.614 78.1538 55.0303 77.9655 55.5357 77.7177C56.0511 77.4699 56.9134 76.9843 58.1324 76.2806C59.3515 75.5769 60.521 74.8237 61.6409 74.0407C62.7609 73.2478 63.98 72.2567 65.308 71.0575C66.6262 69.8582 67.766 68.6293 68.7274 67.3706C69.6788 66.1019 70.4816 64.6549 71.1258 63.0295C71.7701 61.3942 72.0971 59.749 72.0971 58.0938V35.8534C72.0674 35.3479 71.8791 34.9217 71.5124 34.555ZM67.211 58.3019C67.211 66.3497 53.5337 73.2875 53.5337 73.2875V38.7573H67.211C67.211 38.7573 67.211 50.2542 67.211 58.3019Z" fill="white"/>
<path d="M55 49C55 47.3431 56.3431 46 58 46H107C108.657 46 110 47.3431 110 49V60C110 61.6569 108.657 63 107 63H58C56.3431 63 55 61.6569 55 60V49Z" fill="#C32998"/>
<path d="M64.8914 53.7051C64.8914 54.3418 64.8152 54.9258 64.6628 55.457C64.5144 55.9844 64.2839 56.4414 63.9714 56.8281C63.6589 57.2148 63.2625 57.5176 62.782 57.7363L64.8445 60.0391H62.5183L60.948 58.1172C60.9207 58.1172 60.8972 58.1172 60.8777 58.1172C60.8582 58.1172 60.8367 58.1172 60.8132 58.1172C60.114 58.1172 59.5085 58.0137 58.9968 57.8066C58.4851 57.5957 58.0613 57.2949 57.7253 56.9043C57.3933 56.5137 57.1453 56.0469 56.9812 55.5039C56.8171 54.9609 56.7351 54.3574 56.7351 53.6934C56.7351 52.8066 56.8796 52.0352 57.1687 51.3789C57.4617 50.7188 57.9109 50.207 58.5164 49.8438C59.1218 49.4805 59.8914 49.2988 60.825 49.2988C61.7546 49.2988 62.5183 49.4805 63.116 49.8438C63.7175 50.207 64.1628 50.7188 64.4519 51.3789C64.7449 52.0391 64.8914 52.8145 64.8914 53.7051ZM58.6394 53.7051C58.6394 54.3027 58.7136 54.8184 58.8621 55.252C59.0144 55.6816 59.2507 56.0137 59.571 56.248C59.8914 56.4785 60.3054 56.5938 60.8132 56.5938C61.3289 56.5938 61.7468 56.4785 62.0671 56.248C62.3875 56.0137 62.6199 55.6816 62.7644 55.252C62.9128 54.8184 62.9871 54.3027 62.9871 53.7051C62.9871 52.8066 62.8191 52.0996 62.4832 51.584C62.1472 51.0684 61.5945 50.8105 60.825 50.8105C60.3132 50.8105 59.8953 50.9277 59.571 51.1621C59.2507 51.3926 59.0144 51.7246 58.8621 52.1582C58.7136 52.5879 58.6394 53.1035 58.6394 53.7051ZM71.9109 58L71.2898 55.9609H68.1667L67.5457 58H65.5886L68.6121 49.3984H70.8328L73.8679 58H71.9109ZM70.8562 54.4375L70.2351 52.4453C70.196 52.3125 70.1433 52.1426 70.0769 51.9355C70.0144 51.7246 69.95 51.5117 69.8835 51.2969C69.821 51.0781 69.7703 50.8887 69.7312 50.7285C69.6921 50.8887 69.6375 51.0879 69.5671 51.3262C69.5007 51.5605 69.4363 51.7832 69.3738 51.9941C69.3113 52.2051 69.2664 52.3555 69.239 52.4453L68.6238 54.4375H70.8562Z" fill="white"/>
</g>
<defs>
<linearGradient id="paint0_linear_34_2" x1="37.8512" y1="38.8122" x2="89.011" y2="89.972" gradientUnits="userSpaceOnUse">
<stop stop-opacity="0.247059"/>
<stop offset="1" stop-opacity="0"/>
</linearGradient>
<clipPath id="clip0_34_2">
<rect width="108" height="108" fill="white"/>
</clipPath>
</defs>
</svg>
