<svg width="108" height="108" viewBox="0 0 108 108" fill="none" xmlns="http://www.w3.org/2000/svg">
<g clip-path="url(#clip0_41_13)">
<path fill-rule="evenodd" clip-rule="evenodd" d="M70.214 34C70.7096 34 71.1457 34.1883 71.5124 34.555C71.8791 34.9217 72.0674 35.3479 72.0971 35.8534V52.9823L70.8325 49.3984H68.6118L67.211 53.3838V38.7573H53.5337V73.2875C53.5337 73.2875 67.211 66.3497 67.211 58.3019V58H67.5454L68.1665 55.9609H71.2896L71.9106 58H72.0971V58.0938C72.0971 59.749 71.7701 61.3942 71.1258 63.0295C70.4816 64.6549 69.6788 66.1019 68.7274 67.3706C67.766 68.6293 66.6262 69.8582 65.308 71.0575C63.98 72.2567 62.7609 73.2478 61.6409 74.0407C60.521 74.8237 59.3515 75.5769 58.1324 76.2806C56.9134 76.9843 56.0511 77.4699 55.5357 77.7177C55.0303 77.9655 54.614 78.1538 54.3068 78.2926C54.0788 78.4115 53.8211 78.471 53.5535 78.471C53.2859 78.471 53.0282 78.4115 52.8003 78.2926C52.5297 78.1791 52.1822 78.0118 51.7511 77.8042C51.6927 77.7761 51.6328 77.7473 51.5713 77.7177C51.0559 77.46 50.1937 76.9843 48.9746 76.2806C47.7555 75.5769 46.586 74.8336 45.4661 74.0407C44.3461 73.2478 43.1172 72.2567 41.799 71.0575C40.4709 69.8682 39.3311 68.6392 38.3797 67.3706C37.4183 66.1119 36.6155 64.6648 35.9713 63.0295C35.3271 61.4041 35 59.749 35 58.0938V35.8534C35 35.3479 35.1883 34.9217 35.555 34.555C35.9217 34.1883 36.3479 34 36.8534 34H70.214ZM70.2349 52.4453L70.856 54.4375H68.6235L69.2388 52.4453C69.2661 52.3555 69.311 52.2051 69.3735 51.9941C69.436 51.7832 69.5005 51.5605 69.5669 51.3262C69.6372 51.0879 69.6919 50.8887 69.731 50.7285C69.77 50.8887 69.8208 51.0781 69.8833 51.2969C69.9497 51.5117 70.0142 51.7246 70.0767 51.9355C70.1431 52.1426 70.1958 52.3125 70.2349 52.4453Z" fill="white"/>
<path fill-rule="evenodd" clip-rule="evenodd" d="M58 46C56.3431 46 55 47.3431 55 49V60C55 61.6569 56.3431 63 58 63H107C108.657 63 110 61.6569 110 60V49C110 47.3431 108.657 46 107 46H58ZM64.6626 55.457C64.8149 54.9258 64.8911 54.3418 64.8911 53.7051C64.8911 52.8145 64.7446 52.0391 64.4517 51.3789C64.1626 50.7188 63.7173 50.207 63.1157 49.8438C62.5181 49.4805 61.7544 49.2988 60.8247 49.2988C59.8911 49.2988 59.1216 49.4805 58.5161 49.8438C57.9106 50.207 57.4614 50.7188 57.1685 51.3789C56.8794 52.0352 56.7349 52.8066 56.7349 53.6934C56.7349 54.3574 56.8169 54.9609 56.981 55.5039C57.145 56.0469 57.3931 56.5137 57.7251 56.9043C58.061 57.2949 58.4849 57.5957 58.9966 57.8066C59.5083 58.0137 60.1138 58.1172 60.813 58.1172H60.8774H60.9478L62.5181 60.0391H64.8442L62.7817 57.7363C63.2622 57.5176 63.6587 57.2148 63.9712 56.8281C64.2837 56.4414 64.5142 55.9844 64.6626 55.457ZM58.8618 55.252C58.7134 54.8184 58.6392 54.3027 58.6392 53.7051C58.6392 53.1035 58.7134 52.5879 58.8618 52.1582C59.0142 51.7246 59.2505 51.3926 59.5708 51.1621C59.895 50.9277 60.313 50.8105 60.8247 50.8105C61.5942 50.8105 62.147 51.0684 62.4829 51.584C62.8188 52.0996 62.9868 52.8066 62.9868 53.7051C62.9868 54.3027 62.9126 54.8184 62.7642 55.252C62.6196 55.6816 62.3872 56.0137 62.0669 56.248C61.7466 56.4785 61.3286 56.5938 60.813 56.5938C60.3052 56.5938 59.8911 56.4785 59.5708 56.248C59.2505 56.0137 59.0142 55.6816 58.8618 55.252ZM71.2896 55.9609L71.9106 58H73.8677L70.8325 49.3984H68.6118L65.5884 58H67.5454L68.1665 55.9609H71.2896ZM70.2349 52.4453L70.856 54.4375H68.6235L69.2388 52.4453C69.2661 52.3555 69.311 52.2051 69.3735 51.9941C69.436 51.7832 69.5005 51.5605 69.5669 51.3262C69.6372 51.0879 69.6919 50.8887 69.731 50.7285C69.77 50.8887 69.8208 51.0781 69.8833 51.2969C69.9497 51.5117 70.0142 51.7246 70.0767 51.9355C70.1431 52.1426 70.1958 52.3125 70.2349 52.4453Z" fill="#C32998"/>
</g>
<defs>
<clipPath id="clip0_41_13">
<rect width="108" height="108" rx="34" fill="white"/>
</clipPath>
</defs>
</svg>
