<svg width="24" height="22" viewBox="0 0 24 22" fill="none" xmlns="http://www.w3.org/2000/svg">
<path d="M22.059 12.2889C21.8542 12.2452 21.6403 12.283 21.464 12.3934C21.2877 12.5038 21.1624 12.6794 21.1151 12.8817C20.6619 14.7289 19.6332 16.3894 18.1738 17.629C16.7144 18.8686 14.8978 19.6237 12.9799 19.7889C11.0876 19.9964 9.1772 19.614 7.51594 18.696C5.85469 17.7779 4.52584 16.3701 3.71472 14.6689C3.68471 14.5918 3.75074 14.4762 3.91281 14.4999L5.15988 15.0053C5.35497 15.0868 5.57482 15.089 5.7714 15.0119C5.96799 14.9349 6.12557 14.7837 6.21035 14.5918C6.25012 14.4977 6.27113 14.3977 6.27113 14.2954C6.27113 14.1932 6.25087 14.0932 6.2111 13.999C6.17134 13.9049 6.11281 13.8205 6.03928 13.7486C5.96574 13.6767 5.8787 13.6212 5.78266 13.5834L2.59522 12.2956C2.40763 12.22 2.19829 12.2163 2.00845 12.2867C1.81861 12.3571 1.66254 12.4942 1.57025 12.672L0.0785758 15.6492C0.0335554 15.7403 0.00729342 15.8396 0.0012907 15.9411C-0.00471202 16.0426 0.0102948 16.1441 0.0448105 16.2405C0.0793261 16.336 0.1326 16.4242 0.202382 16.4991C0.272164 16.5739 0.356202 16.6346 0.449244 16.6776C0.557293 16.728 0.675846 16.7547 0.795901 16.7547C0.944468 16.7554 1.09003 16.7147 1.21684 16.6384C1.34365 16.562 1.44645 16.4516 1.51323 16.3205L1.99344 15.3602C2.0092 15.3343 2.03096 15.312 2.05647 15.2957C2.08198 15.2794 2.11125 15.2691 2.14201 15.2661C2.17277 15.2631 2.20354 15.2668 2.23205 15.2772C2.26056 15.2876 2.28683 15.3054 2.30709 15.3276C3.17673 17.1326 4.5461 18.6582 6.25612 19.7289C7.96615 20.7996 9.94705 21.3701 11.9722 21.3768C12.3466 21.3768 12.7308 21.359 13.1262 21.3234C15.372 21.1071 17.4947 20.2105 19.2032 18.756C20.9118 17.3015 22.1236 15.3609 22.6721 13.1996C22.6931 13.1003 22.6938 12.9973 22.6736 12.8972C22.6533 12.7972 22.615 12.7024 22.558 12.6179C22.501 12.5334 22.4282 12.4601 22.3427 12.4038C22.2571 12.3474 22.1611 12.3074 22.0598 12.2882L22.059 12.2889ZM23.5597 5.32833C23.4509 5.27794 23.3331 5.25127 23.2131 5.25127C23.0645 5.25053 22.9182 5.29128 22.7921 5.3676C22.6661 5.44392 22.5625 5.55432 22.4957 5.68547L22.0155 6.64576C21.9998 6.67169 21.978 6.69392 21.9525 6.71022C21.927 6.72652 21.8977 6.7369 21.8669 6.73986C21.8362 6.74282 21.8054 6.73912 21.7769 6.72874C21.7484 6.71837 21.7221 6.70059 21.7019 6.67836C20.833 4.8719 19.4644 3.34552 17.7543 2.27409C16.0443 1.20266 14.0627 0.63064 12.0375 0.62323C11.6638 0.62323 11.2797 0.639531 10.8835 0.676579C8.63695 0.89294 6.51424 1.79098 4.80497 3.24623C3.09569 4.70148 1.88464 6.64353 1.33765 8.8064C1.31664 8.90643 1.31589 9.00942 1.3354 9.10945C1.3549 9.20948 1.39467 9.30432 1.4517 9.38953C1.50872 9.474 1.58301 9.54736 1.66855 9.60367C1.75408 9.65998 1.85088 9.69925 1.95217 9.71852C2.15702 9.76224 2.37086 9.72445 2.54719 9.61405C2.72352 9.50364 2.84883 9.32803 2.8961 9.12575C3.34931 7.2778 4.37802 5.6173 5.83743 4.37842C7.29685 3.13953 9.11342 2.38301 11.0313 2.21704C12.9236 2.01031 14.834 2.39264 16.4953 3.31143C18.1565 4.23023 19.4854 5.63805 20.2965 7.33856C20.325 7.41413 20.2605 7.5312 20.0984 7.50601L18.8483 6.99623C18.6532 6.91547 18.4341 6.91324 18.2376 6.9903C18.041 7.06736 17.8834 7.21852 17.7979 7.40969C17.7581 7.50379 17.7371 7.60456 17.7371 7.70607C17.7371 7.80758 17.7573 7.90909 17.7971 8.00246C17.8369 8.09656 17.8954 8.18177 17.9689 8.2529C18.0425 8.32403 18.1295 8.38035 18.2255 8.41814L21.4055 9.70444C21.5931 9.78076 21.8024 9.78447 21.9923 9.71482C22.1821 9.64517 22.3389 9.50809 22.4305 9.32952L23.9221 6.35085C23.9664 6.26046 23.9927 6.16191 23.9987 6.06114C24.0047 5.96037 23.9904 5.8596 23.9566 5.76476C23.9229 5.66991 23.8704 5.58248 23.8021 5.5069C23.7338 5.43132 23.6513 5.3713 23.559 5.32759L23.5597 5.32833Z" fill="black"/>
</svg>
