<svg width="24" height="24" viewBox="0 0 24 24" fill="none" xmlns="http://www.w3.org/2000/svg">
<g clip-path="url(#clip0_1113_8920)">
<path d="M11.9999 24C9.62618 24 7.30642 23.2965 5.33316 21.978C3.3599 20.6595 1.82165 18.7852 0.913393 16.5922C0.00513923 14.3991 -0.232612 11.9864 0.23089 9.65909C0.694392 7.33181 1.83665 5.19278 3.51516 3.51501C5.19366 1.83649 7.33192 0.694231 9.65918 0.230726C11.9864 -0.23278 14.4 0.00572301 16.5922 0.913234C18.7852 1.82149 20.6587 3.35976 21.978 5.33303C23.2972 7.30631 24 9.62683 24 11.9999C23.9963 15.1814 22.731 18.2317 20.481 20.481C18.231 22.7302 15.1815 23.9963 11.9999 24ZM11.9999 1.49974C9.92318 1.49974 7.89293 2.1155 6.16642 3.26901C4.43991 4.42252 3.09365 6.06279 2.2994 7.98132C1.5044 9.89984 1.29665 12.0111 1.70165 14.0481C2.10665 16.0852 3.10715 17.9557 4.57491 19.4242C6.04342 20.8927 7.91393 21.8925 9.95093 22.2975C11.9879 22.7025 14.0992 22.4947 16.0177 21.6997C17.9362 20.9047 19.5765 19.5592 20.73 17.8327C21.8835 16.1062 22.4992 14.0759 22.4992 11.9991C22.4955 9.21508 21.3885 6.54655 19.4197 4.57853C17.451 2.6105 14.7825 1.50274 11.9992 1.49899L11.9999 1.49974ZM11.9999 14.9609C11.8012 14.9609 11.6099 14.8821 11.4697 14.7411C11.3294 14.6001 11.2499 14.4096 11.2499 14.2109V5.22128C11.2499 5.02253 11.3287 4.83128 11.4697 4.69103C11.6107 4.55078 11.8012 4.47127 11.9999 4.47127C12.1987 4.47127 12.3899 4.55003 12.5302 4.69103C12.6704 4.83203 12.7499 5.02253 12.7499 5.22128V14.2109C12.7499 14.4096 12.6712 14.6009 12.5302 14.7411C12.3892 14.8814 12.1987 14.9609 11.9999 14.9609ZM11.9999 19.5285C12.4912 19.5285 12.8895 19.1302 12.8895 18.6389C12.8895 18.1477 12.4912 17.7494 11.9999 17.7494C11.5087 17.7494 11.1104 18.1477 11.1104 18.6389C11.1104 19.1302 11.5087 19.5285 11.9999 19.5285Z" fill="#175DDC"/>
</g>
<defs>
<clipPath id="clip0_1113_8920">
<rect width="24" height="24" fill="white"/>
</clipPath>
</defs>
</svg>
