<svg width="24" height="24" viewBox="0 0 24 24" fill="none" xmlns="http://www.w3.org/2000/svg">
<g clip-path="url(#clip0_1113_8944)">
<path d="M19.8902 7.6597H19.1926C19.138 7.6597 19.0835 7.64845 19.0327 7.62819C18.982 7.60794 18.9359 7.57718 18.8975 7.53892C18.8591 7.50066 18.8284 7.45565 18.8076 7.40614C18.7869 7.35663 18.7761 7.30337 18.7761 7.25011V6.95004C18.8084 5.26589 18.2045 3.62976 17.0788 2.35297C15.9532 1.07617 14.3857 0.249479 12.6754 0.0304277C11.7303 -0.0580929 10.776 0.0469316 9.87473 0.34025C8.97345 0.633568 8.14516 1.10693 7.44366 1.73182C6.74138 2.35597 6.18125 3.1174 5.79861 3.96584C5.41597 4.81429 5.22004 5.73175 5.22234 6.65897V7.13908C5.22234 7.14958 5.18546 7.6522 4.73828 7.6597H4.10977C3.83316 7.66045 3.55962 7.71446 3.30453 7.81874C3.04944 7.92301 2.81739 8.0753 2.623 8.26659C2.42784 8.45789 2.2734 8.68519 2.1689 8.935C2.06441 9.18481 2.01062 9.45262 2.01139 9.72268V21.94C2.01293 22.4839 2.23345 23.006 2.62684 23.3916C3.02024 23.7772 3.55348 23.9963 4.11053 24H19.891C20.448 23.9963 20.9813 23.778 21.3739 23.3924C21.7665 23.0068 21.9878 22.4854 21.9886 21.9415V9.72268C21.9894 9.45262 21.9364 9.18556 21.8311 8.93575C21.7258 8.68594 21.5722 8.45864 21.377 8.26734C21.1818 8.07605 20.9506 7.92376 20.6955 7.81949C20.4404 7.71521 20.1668 7.6612 19.8902 7.66045V7.6597ZM12.5663 18.3317V20.3512C12.5701 20.4262 12.5586 20.5012 12.5317 20.5717C12.5048 20.6422 12.4641 20.7067 12.4111 20.7615C12.358 20.8163 12.2943 20.859 12.2236 20.889C12.1529 20.919 12.0768 20.934 12 20.934C11.9232 20.934 11.8471 20.919 11.7764 20.889C11.7057 20.859 11.6419 20.8163 11.5889 20.7615C11.5359 20.7067 11.4952 20.6422 11.4683 20.5717C11.4414 20.5012 11.4299 20.4262 11.4337 20.3512V18.3317C11.1802 18.2072 10.9765 18.0031 10.8567 17.7518C10.7368 17.5005 10.7069 17.2169 10.7722 16.9469C10.8375 16.6768 10.9942 16.4367 11.217 16.265C11.4399 16.0932 11.7157 15.9994 11.9992 15.9994C12.2828 15.9994 12.5586 16.0932 12.7814 16.265C13.0042 16.4367 13.161 16.6775 13.2263 16.9469C13.2916 17.2162 13.2624 17.5005 13.1418 17.7518C13.0211 18.0031 12.8183 18.2079 12.5647 18.3317H12.5663ZM17.2394 7.25011C17.2394 7.30412 17.2286 7.35738 17.2079 7.40689C17.1872 7.4564 17.1564 7.50141 17.1172 7.53967C17.078 7.57793 17.0319 7.60794 16.9812 7.62819C16.9305 7.64845 16.876 7.6597 16.8206 7.6597H7.40063C7.32302 7.66645 7.24388 7.65745 7.16935 7.6342C7.09482 7.61094 7.02567 7.57343 6.96574 7.52467C6.90581 7.47516 6.85663 7.41514 6.82129 7.34688C6.78594 7.27861 6.76366 7.20435 6.75752 7.12858V6.65897C6.75521 5.89379 6.92886 5.13837 7.26386 4.4467C7.59886 3.75504 8.08907 3.1459 8.69684 2.66279C9.30461 2.17968 10.0153 1.83535 10.7768 1.65456C11.5382 1.47376 12.3312 1.46176 13.098 1.6193C14.2912 1.89311 15.3523 2.55626 16.1053 3.50073C16.8583 4.4452 17.2578 5.61172 17.2379 6.8075V7.25011H17.2394Z" fill="black"/>
</g>
<defs>
<clipPath id="clip0_1113_8944">
<rect width="24" height="24" fill="white"/>
</clipPath>
</defs>
</svg>
