<svg width="24" height="24" viewBox="0 0 24 24" fill="none" xmlns="http://www.w3.org/2000/svg">
<g clip-path="url(#clip0_1113_8934)">
<path fill-rule="evenodd" clip-rule="evenodd" d="M19.9583 18.8498C18.0328 21.0849 15.1816 22.5 12 22.5C10.326 22.5 8.74356 22.1083 7.33924 21.4115C7.36865 21.3435 7.39722 21.2783 7.4241 21.2169C7.45479 21.1469 7.48327 21.0818 7.50828 21.0235C7.53608 20.9586 7.56445 20.8913 7.59358 20.8223C7.7037 20.5613 7.82469 20.2746 7.96636 19.9915C8.1468 19.6309 8.34022 19.3201 8.54541 19.116C8.58092 19.0807 8.68251 19.0202 8.91835 18.9695C9.14322 18.9212 9.42977 18.8938 9.77282 18.8748C9.96029 18.8645 10.1649 18.8569 10.3801 18.8489C10.9221 18.8288 11.5309 18.8062 12.0999 18.7307C12.5261 18.6742 12.8688 18.5624 13.1253 18.3823C13.3952 18.1927 13.5475 17.9421 13.6025 17.6689C13.6541 17.4123 13.6142 17.1656 13.5621 16.9718C13.5151 16.7972 13.4482 16.6319 13.4005 16.5141L13.3856 16.4772C13.3193 16.3124 13.2525 16.1794 13.1884 16.0519L13.1884 16.0519L13.1883 16.0519L13.1883 16.0518C13.0179 15.7129 12.867 15.4127 12.798 14.6573C12.7576 14.2152 12.92 13.7182 13.1387 13.1936C13.1765 13.1029 13.2179 13.007 13.2595 12.9107C13.3277 12.7526 13.3964 12.5935 13.4503 12.4551C13.5362 12.2343 13.6242 11.9726 13.6242 11.7267C13.6242 11.4849 13.5468 11.227 13.4433 10.9956C13.3368 10.7571 13.1874 10.5129 13.0096 10.2919C12.675 9.87596 12.1471 9.43234 11.5255 9.43234C10.9276 9.43234 10.1583 9.64898 9.50505 9.90492C9.17148 10.0356 8.85276 10.1826 8.58279 10.3298C8.32116 10.4725 8.07637 10.6308 7.91332 10.7904C6.6512 12.0258 5.90289 12.3831 5.45539 12.4087C5.07885 12.4303 4.80611 12.2154 4.4561 11.7332C4.37137 11.6165 4.28795 11.4926 4.19899 11.3601L4.1898 11.3464C4.10507 11.2201 4.01522 11.0862 3.92146 10.9557C3.7285 10.6871 3.50019 10.4055 3.21321 10.1847C2.91863 9.95807 2.56312 9.79634 2.12847 9.76904C2.00104 9.76103 1.87001 9.76478 1.73504 9.78045C2.15267 7.83976 3.10669 6.09841 4.43428 4.71919C4.50898 5.15952 4.63286 5.52429 4.80403 5.8208C5.11536 6.36006 5.56557 6.64203 6.06182 6.74127C6.61258 6.85142 7.22548 6.66191 7.77302 6.46356C7.94222 6.40227 8.10983 6.3382 8.27752 6.2741L8.27754 6.2741C8.69731 6.11365 9.1176 5.953 9.5647 5.83514C9.91594 5.74255 10.3534 5.76231 10.8658 5.85156C11.2251 5.91413 11.5847 6.0031 11.9532 6.09427C12.1138 6.13402 12.2761 6.17418 12.4409 6.21276C12.9562 6.33345 13.5037 6.44064 13.9831 6.40226C14.4921 6.36151 14.9787 6.1488 15.2525 5.60125C15.4241 5.25794 15.421 4.93022 15.2839 4.63506C15.1664 4.38207 14.9588 4.17834 14.8082 4.03124C14.4561 3.68717 14.25 3.48186 14.25 3.15001C14.25 2.98884 14.2993 2.89167 14.3719 2.81182C14.4577 2.71749 14.5909 2.63237 14.783 2.53973C14.8631 2.50107 14.9445 2.46516 15.0325 2.42636L15.0807 2.40506C15.1832 2.35969 15.2954 2.30929 15.4018 2.2533C15.4648 2.22011 15.5337 2.18112 15.6029 2.13444C18.2312 3.09457 20.3684 5.07507 21.5348 7.59647C21.5207 7.59476 21.5066 7.59307 21.4925 7.59141C20.9776 7.53103 20.4902 7.52054 20.0496 7.67086C19.5873 7.82858 19.2305 8.14332 18.939 8.62198C18.7734 8.89377 18.5539 9.17384 18.3105 9.48418C18.2682 9.53814 18.2252 9.59301 18.1816 9.64892C17.8996 10.0107 17.5961 10.4138 17.3934 10.8308C17.1888 11.2515 17.0607 11.7388 17.2016 12.2494C17.3426 12.7606 17.7264 13.1993 18.3376 13.5815C18.4721 13.6656 18.6425 13.7259 18.7646 13.769L18.7919 13.7787C18.9383 13.8307 19.0559 13.8742 19.1549 13.9297C19.2503 13.9832 19.2986 14.0319 19.3241 14.0761C19.346 14.114 19.3743 14.1878 19.3539 14.3405C19.2896 14.8238 19.2604 15.2795 19.2837 15.6703C19.3059 16.0451 19.3795 16.429 19.5791 16.7098C19.7387 16.9345 19.7409 17.2521 19.7257 17.7209L19.7253 17.7341C19.7188 17.932 19.7107 18.1811 19.7546 18.4001C19.7844 18.5489 19.844 18.7115 19.9583 18.8498ZM21.8012 18.9253C23.1861 16.9688 24 14.5795 24 12C24 5.37258 18.6274 0 12 0C5.37258 0 0 5.37258 0 12C0 16.4949 2.47136 20.4126 6.12941 22.4684V22.5882H6.3479C8.03213 23.4892 9.95641 24 12 24C16.0112 24 19.5627 22.0319 21.7416 19.0087C21.7652 18.9838 21.787 18.9574 21.8069 18.9294L21.8012 18.9253ZM6.54755 20.9751C6.56821 20.9277 6.58809 20.8823 6.6066 20.84C6.63545 20.7741 6.66098 20.7158 6.68097 20.6691C6.70535 20.6122 6.73132 20.5506 6.75883 20.4854C6.86964 20.2226 7.00535 19.9008 7.16151 19.5887C7.35515 19.2018 7.60078 18.7861 7.9108 18.4779C8.1329 18.257 8.44349 18.151 8.72931 18.0896C9.02609 18.0259 9.37068 17.9957 9.72318 17.9762C9.94355 17.964 10.168 17.9557 10.3946 17.9473H10.3947H10.3947H10.3948C10.9201 17.9279 11.4571 17.9081 11.9816 17.8385C12.3282 17.7926 12.5135 17.7122 12.608 17.6458C12.6891 17.5888 12.7107 17.5384 12.7201 17.4914C12.7329 17.4278 12.7278 17.3351 12.6929 17.2055C12.6611 17.0869 12.6148 16.9722 12.5648 16.8483L12.5506 16.8131C12.5121 16.7174 12.4634 16.6208 12.4098 16.5146C12.2271 16.1527 11.9876 15.6783 11.9017 14.7392C11.8391 14.0542 12.0889 13.3728 12.308 12.8472C12.3566 12.7307 12.4021 12.6255 12.4446 12.5273L12.4447 12.5272L12.4448 12.5269L12.4449 12.5268L12.4449 12.5267L12.4449 12.5267C12.5065 12.3844 12.5619 12.2564 12.6115 12.1288C12.6963 11.9109 12.7242 11.7883 12.7242 11.7267C12.7242 11.6612 12.6986 11.5348 12.6217 11.3628C12.5479 11.1978 12.4397 11.0193 12.3084 10.8561C12.0247 10.5035 11.7282 10.3323 11.5255 10.3323C11.0979 10.3323 10.4545 10.4995 9.83339 10.7429C9.52979 10.8618 9.24593 10.9934 9.01363 11.12C8.77298 11.2512 8.6158 11.3621 8.54289 11.4335C7.27181 12.6777 6.31343 13.2611 5.50684 13.3073C4.62931 13.3575 4.10057 12.7755 3.72779 12.262C3.63182 12.1298 3.53946 11.9924 3.45172 11.8616L3.44561 11.8525C3.35856 11.7228 3.27577 11.5995 3.19053 11.4808C3.0147 11.2361 2.84715 11.0386 2.66445 10.898C2.48937 10.7633 2.30141 10.6817 2.07204 10.6673C1.93569 10.6587 1.77265 10.6732 1.57655 10.7257C1.52601 11.1434 1.5 11.5687 1.5 12C1.5 15.8023 3.52108 19.1326 6.54755 20.9751ZM20.6203 17.9966C20.6201 17.9274 20.6221 17.8463 20.6252 17.7501L20.6272 17.6911C20.6411 17.2986 20.6628 16.6812 20.3127 16.1885C20.2633 16.1189 20.2016 15.9454 20.1821 15.6169C20.1635 15.3043 20.1859 14.9107 20.2461 14.4594C20.288 14.1448 20.2411 13.8642 20.1035 13.6261C19.9696 13.3941 19.7743 13.2451 19.5948 13.1446C19.4205 13.0469 19.2338 12.9805 19.0966 12.9318L19.0965 12.9318L19.0965 12.9318L19.0932 12.9306C18.9322 12.8734 18.8568 12.8447 18.8148 12.8185C18.3137 12.5051 18.1289 12.2267 18.0692 12.0101C18.0093 11.793 18.0483 11.5419 18.2027 11.2243C18.359 10.903 18.6064 10.5679 18.8915 10.2022C18.9306 10.1521 18.9706 10.1011 19.011 10.0496L19.0121 10.0482L19.0125 10.0476L19.0125 10.0476C19.2538 9.74034 19.5119 9.41154 19.7076 9.09016C19.9141 8.7511 20.1177 8.59857 20.3402 8.52266C20.5844 8.43934 20.9064 8.42885 21.3877 8.48529C21.5798 8.50782 21.7602 8.53552 21.9254 8.56538C22.2977 9.64158 22.5 10.7972 22.5 12C22.5 14.2294 21.8052 16.2965 20.6203 17.9966ZM14.3302 1.75948C13.5807 1.58965 12.8008 1.5 12 1.5C9.43346 1.5 7.08198 2.42084 5.25795 3.95016C5.29071 4.64337 5.42113 5.08963 5.58347 5.37082C5.75967 5.67602 5.98449 5.80799 6.23831 5.85875C6.50976 5.91303 6.89535 5.82427 7.46649 5.61737C7.60613 5.56679 7.75562 5.50965 7.91257 5.44966L7.91259 5.44965L7.9126 5.44965C8.34673 5.28372 8.83789 5.09599 9.33529 4.96487C9.87597 4.82234 10.4677 4.86867 11.0202 4.9649C11.4121 5.03316 11.8219 5.1345 12.2035 5.22888L12.2037 5.22891C12.3567 5.26675 12.5051 5.30346 12.6461 5.33647C13.1659 5.45822 13.588 5.53101 13.9113 5.50513C14.205 5.48162 14.354 5.38581 14.4475 5.19876C14.5008 5.09206 14.4853 5.05207 14.4676 5.01415C14.4304 4.93405 14.3475 4.83933 14.1792 4.67495C14.1605 4.65667 14.1407 4.63757 14.12 4.61761C13.8249 4.33318 13.35 3.8755 13.35 3.15001C13.35 2.75706 13.4881 2.44591 13.7061 2.20624C13.8921 2.00177 14.1241 1.8629 14.3302 1.75948Z" fill="black"/>
</g>
<defs>
<clipPath id="clip0_1113_8934">
<rect width="24" height="24" fill="white"/>
</clipPath>
</defs>
</svg>
