<svg width="28" height="27" viewBox="0 0 28 27" fill="none" xmlns="http://www.w3.org/2000/svg">
<path fill-rule="evenodd" clip-rule="evenodd" d="M21.7353 11.0769C22.378 11.0769 22.9943 11.3322 23.4487 11.7866C23.9031 12.2411 24.1584 12.8574 24.1584 13.5C24.1584 14.1427 23.9031 14.759 23.4487 15.2134C22.9943 15.6678 22.378 15.9231 21.7353 15.9231C21.0927 15.9231 20.4764 15.6678 20.022 15.2134C19.5676 14.759 19.3123 14.1427 19.3123 13.5C19.3123 12.8574 19.5676 12.2411 20.022 11.7866C20.4764 11.3322 21.0927 11.0769 21.7353 11.0769ZM13.6584 11.0769C14.3011 11.0769 14.9174 11.3322 15.3718 11.7866C15.8262 12.2411 16.0815 12.8574 16.0815 13.5C16.0815 14.1427 15.8262 14.759 15.3718 15.2134C14.9174 15.6678 14.3011 15.9231 13.6584 15.9231C13.0158 15.9231 12.3995 15.6678 11.945 15.2134C11.4906 14.759 11.2353 14.1427 11.2353 13.5C11.2353 12.8574 11.4906 12.2411 11.945 11.7866C12.3995 11.3322 13.0158 11.0769 13.6584 11.0769ZM5.58149 11.0769C6.22413 11.0769 6.84045 11.3322 7.29487 11.7866C7.74928 12.2411 8.00457 12.8574 8.00457 13.5C8.00457 14.1427 7.74928 14.759 7.29487 15.2134C6.84045 15.6678 6.22413 15.9231 5.58149 15.9231C4.93885 15.9231 4.32253 15.6678 3.86812 15.2134C3.4137 14.759 3.15842 14.1427 3.15842 13.5C3.15842 12.8574 3.4137 12.2411 3.86812 11.7866C4.32253 11.3322 4.93885 11.0769 5.58149 11.0769Z" fill="black"/>
</svg>
