<svg width="24" height="24" viewBox="0 0 24 24" fill="none" xmlns="http://www.w3.org/2000/svg">
<g clip-path="url(#clip0_1113_8966)">
<path d="M22.8333 11.136H13.4444C13.2531 11.136 13.0689 11.0573 12.9338 10.9163C12.7988 10.7753 12.7222 10.5847 12.7222 10.386V0.75C12.7222 0.55125 12.6464 0.36 12.5106 0.21975C12.3748 0.0795 12.1914 0 12 0C11.8086 0 11.6244 0.07875 11.4894 0.21975C11.3536 0.36075 11.2778 0.55125 11.2778 0.75V10.386C11.2778 10.5847 11.2019 10.776 11.0662 10.9163C10.9304 11.0565 10.7469 11.136 10.5556 11.136H1.16666C1.07205 11.136 0.978165 11.1555 0.890054 11.193C0.801943 11.2305 0.722498 11.286 0.656054 11.3558C0.588887 11.4255 0.535443 11.508 0.499332 11.5988C0.463221 11.6895 0.444443 11.787 0.444443 11.886C0.444443 11.9843 0.463221 12.0818 0.499332 12.1733C0.535443 12.2648 0.588887 12.3472 0.656054 12.4163C0.723221 12.486 0.802665 12.5415 0.890054 12.579C0.977443 12.6165 1.07133 12.636 1.16666 12.636H10.5556C10.7469 12.636 10.9311 12.7148 11.0662 12.8558C11.2012 12.9968 11.2778 13.1873 11.2778 13.386V23.25C11.2778 23.4487 11.3536 23.64 11.4894 23.7803C11.6252 23.9205 11.8086 24 12 24C12.1914 24 12.3756 23.9213 12.5106 23.7803C12.6457 23.6392 12.7222 23.4487 12.7222 23.25V13.386C12.7222 13.1873 12.7981 12.996 12.9338 12.8558C13.0696 12.7155 13.2531 12.636 13.4444 12.636H22.8333C23.0247 12.636 23.2089 12.5573 23.3439 12.4163C23.479 12.2753 23.5556 12.0847 23.5556 11.886C23.5556 11.6873 23.4797 11.496 23.3439 11.3558C23.2082 11.2148 23.0247 11.136 22.8333 11.136Z" fill="black"/>
</g>
<defs>
<clipPath id="clip0_1113_8966">
<rect width="24" height="24" fill="white"/>
</clipPath>
</defs>
</svg>
