<svg width="24" height="24" viewBox="0 0 24 24" fill="none" xmlns="http://www.w3.org/2000/svg">
<g clip-path="url(#clip0_1113_8972)">
<path d="M16.6345 7.39677C16.6345 7.39677 17.0695 7.04277 17.3545 7.37277C17.605 7.66076 17.2855 8.03426 17.2855 8.03426L9.02514 17.1736C8.84065 17.3881 8.74015 17.6619 8.74315 17.9446L8.77915 23.2095C8.7814 23.3768 8.83615 23.5395 8.9359 23.6738C9.03564 23.808 9.17514 23.9085 9.33414 23.9595C9.41364 23.9857 9.49614 24 9.58014 24C9.70613 24 9.82988 23.9707 9.94238 23.9145C10.0549 23.8583 10.1524 23.7758 10.2266 23.6745L12.5546 20.5246C12.6821 20.3528 12.8628 20.2276 13.0691 20.1691C13.2753 20.1106 13.4943 20.1218 13.6931 20.2006L18.7855 22.2105C18.895 22.254 19.012 22.2728 19.1297 22.2653C19.2475 22.2578 19.3615 22.2255 19.465 22.17C19.5677 22.1145 19.6577 22.0373 19.7267 21.9428C19.7957 21.8483 19.8437 21.7403 19.867 21.6255L23.9844 0.951372C24.0144 0.801375 24.0002 0.645377 23.9432 0.50363C23.8862 0.361882 23.7902 0.238884 23.6649 0.150385C23.5397 0.0611369 23.3919 0.00938771 23.2382 0.00113785C23.0844 -0.00711202 22.9322 0.0296374 22.7994 0.106886L0.400282 12.9212C0.272784 12.9947 0.167786 13.1019 0.0972868 13.2309C0.026788 13.3599 -0.0062117 13.5062 0.00128818 13.6532C0.00878806 13.8002 0.0575375 13.9419 0.140786 14.0634C0.224035 14.1849 0.339533 14.2802 0.474531 14.3394L5.44695 16.6014C5.71095 16.7814 6.02744 16.8661 6.34619 16.8421C6.66493 16.8181 6.96493 16.6869 7.19892 16.4694L16.6345 7.39677Z" fill="black"/>
</g>
<defs>
<clipPath id="clip0_1113_8972">
<rect width="24" height="24" fill="white"/>
</clipPath>
</defs>
</svg>
