<svg width="164" height="124" viewBox="0 0 164 124" fill="none" xmlns="http://www.w3.org/2000/svg">
<path d="M76.4954 121.109H128.977" stroke="#A3A3A3" stroke-width="4" stroke-linecap="round" stroke-linejoin="round"/>
<path d="M93.3645 106.062V121.109" stroke="#A3A3A3" stroke-width="4" stroke-linejoin="round"/>
<path d="M110.233 106.062V121.109" stroke="#A3A3A3" stroke-width="4" stroke-linejoin="round"/>
<rect x="42.7576" y="28.9436" width="119.02" height="77.1181" rx="4" fill="#303030" stroke="#A3A3A3" stroke-width="4"/>
<rect x="52.1292" y="37.4078" width="101.214" height="60.1898" rx="2" fill="#303030" stroke="#A3A3A3" stroke-width="2"/>
<path d="M147.628 47.3188H120.995" stroke="#A3A3A3" stroke-width="2" stroke-linecap="round"/>
<path d="M147.628 57.3417H129.318" stroke="#A3A3A3" stroke-width="2" stroke-linecap="round"/>
<path d="M120.994 57.3417H108.51" stroke="#A3A3A3" stroke-width="2" stroke-linecap="round"/>
<path d="M147.628 67.3646H135.976" stroke="#A3A3A3" stroke-width="2" stroke-linecap="round"/>
<path d="M126.821 67.3646H101.019" stroke="#A3A3A3" stroke-width="2" stroke-linecap="round"/>
<path d="M147.628 77.3875H120.995" stroke="#A3A3A3" stroke-width="2" stroke-linecap="round"/>
<path d="M111.839 77.3875H97.6899" stroke="#A3A3A3" stroke-width="2" stroke-linecap="round"/>
<path d="M147.628 87.4103H110.175" stroke="#A3A3A3" stroke-width="2" stroke-linecap="round"/>
<path d="M101.019 87.4103H79.379" stroke="#A3A3A3" stroke-width="2" stroke-linecap="round"/>
<path d="M70.2236 87.4103H56.9067" stroke="#A3A3A3" stroke-width="2" stroke-linecap="round"/>
<path d="M27.2824 42.8388C27.2824 65.2743 45.6384 83.4617 68.2817 83.4617C90.9249 83.4617 109.281 65.2743 109.281 42.8389C109.281 20.4035 90.9249 2.216 68.2817 2.216C45.6384 2.216 27.2824 20.4034 27.2824 42.8388Z" fill="#303030" stroke="#A3A3A3" stroke-width="4" stroke-linecap="round" stroke-linejoin="round"/>
<path d="M3.83913 107.475L4.6422 108.281C6.59139 110.237 9.75165 110.237 11.7008 108.281L35.8989 83.9975L42.3686 77.505C42.9365 76.9294 42.8099 75.9697 42.1451 75.5102C39.4495 73.647 37.3288 71.3171 36.1288 69.7493C35.7339 69.2333 34.9654 69.1555 34.5069 69.6156L28.0372 76.1081L3.83913 100.391C1.88994 102.347 1.88994 105.519 3.83913 107.475Z" fill="#303030" stroke="#A3A3A3" stroke-width="4" stroke-linecap="round" stroke-linejoin="round"/>
<rect width="54.9323" height="15.8695" rx="4" transform="matrix(-1 0 0 1 96.0254 20.5912)" fill="#303030" stroke="#A3A3A3" stroke-width="4"/>
<path d="M71.2791 58.0008V65.4229C71.2791 67.6321 69.4882 69.4229 67.279 69.4229H39.1385C37.999 69.4229 36.905 68.9442 36.1843 68.0616C34.2078 65.6414 32.387 62.8248 30.722 59.2362C29.5612 56.7344 31.4973 54.0008 34.2552 54.0008H67.2791C69.4882 54.0008 71.2791 55.7917 71.2791 58.0008Z" fill="#303030" stroke="#A3A3A3" stroke-width="4" stroke-linecap="round"/>
<path d="M95.193 66.6257V58.0008C95.193 55.7917 96.9839 54.0008 99.193 54.0008H102.55C105.279 54.0008 107.078 56.6299 105.813 59.0474C104.144 62.2377 101.962 65.8368 100.17 68.3309C99.6676 69.0302 98.8513 69.4229 97.9902 69.4229C96.4453 69.4229 95.193 68.1706 95.193 66.6257Z" fill="#303030" stroke="#A3A3A3" stroke-width="4" stroke-linecap="round"/>
</svg>
