<svg width="27" height="27" viewBox="0 0 27 27" fill="none" xmlns="http://www.w3.org/2000/svg">
<path fill-rule="evenodd" clip-rule="evenodd" d="M20.4635 19.4936C18.7786 21.4493 16.2839 22.6875 13.5 22.6875C12.0353 22.6875 10.6506 22.3447 9.42184 21.7351C9.44757 21.6756 9.47257 21.6185 9.49608 21.5648L9.49611 21.5648C9.52296 21.5035 9.54787 21.4466 9.56974 21.3955C9.59406 21.3388 9.61889 21.2799 9.64438 21.2195C9.74074 20.9912 9.8466 20.7403 9.97056 20.4926C10.1284 20.1771 10.2977 19.9051 10.4772 19.7266C10.5083 19.6957 10.5972 19.6427 10.8036 19.5984C11.0003 19.5561 11.251 19.5321 11.5512 19.5155C11.7151 19.5064 11.894 19.4998 12.0821 19.4928H12.0822H12.0822L12.0826 19.4928C12.5568 19.4752 13.0895 19.4554 13.5874 19.3894C13.9603 19.3399 14.2602 19.2422 14.4847 19.0845C14.7208 18.9186 14.8541 18.6994 14.9022 18.4603C14.9473 18.2358 14.9124 18.0199 14.8668 17.8504C14.8257 17.6976 14.7672 17.5529 14.7254 17.4499L14.7124 17.4176C14.6544 17.2734 14.5959 17.157 14.5398 17.0454L14.5398 17.0454C14.3907 16.7488 14.2586 16.4861 14.1982 15.8252C14.1629 15.4383 14.305 15.0035 14.4964 14.5444C14.5295 14.4651 14.5657 14.3811 14.6021 14.2969C14.6618 14.1585 14.7219 14.0193 14.769 13.8982C14.8442 13.705 14.9212 13.476 14.9212 13.2609C14.9212 13.0493 14.8534 12.8236 14.7629 12.6211C14.6697 12.4125 14.5389 12.1988 14.3834 12.0054C14.0906 11.6415 13.6287 11.2533 13.0848 11.2533C12.5617 11.2533 11.8885 11.4429 11.3169 11.6668C11.025 11.7812 10.7462 11.9098 10.5099 12.0386C10.281 12.1634 10.0668 12.3019 9.92415 12.4416C8.81979 13.5226 8.16502 13.8352 7.77347 13.8577C7.44399 13.8765 7.20534 13.6885 6.89909 13.2666C6.82495 13.1645 6.75195 13.056 6.67411 12.9401L6.66607 12.9281C6.59193 12.8176 6.51332 12.7005 6.43127 12.5863C6.26243 12.3513 6.06266 12.1048 5.81156 11.9116C5.5538 11.7133 5.24272 11.5718 4.8624 11.5479C4.7509 11.5409 4.63626 11.5442 4.51815 11.5579C4.88358 9.8598 5.71835 8.3361 6.88 7.12929C6.94536 7.51458 7.05376 7.83376 7.20354 8.09321C7.47595 8.56507 7.86988 8.81179 8.30411 8.89863C8.78602 8.99501 9.32231 8.82919 9.80141 8.65563C9.94944 8.60201 10.0961 8.54596 10.2428 8.48988L10.2428 8.48987L10.2428 8.48987L10.2428 8.48986C10.6102 8.34946 10.9779 8.20889 11.3691 8.10576C11.6765 8.02475 12.0592 8.04204 12.5076 8.12013C12.822 8.17488 13.1366 8.25273 13.459 8.33251C13.5996 8.36728 13.7416 8.40243 13.8858 8.43618C14.3367 8.54178 14.8158 8.63558 15.2352 8.60199C15.6806 8.56634 16.1064 8.38021 16.3459 7.90111C16.4961 7.60072 16.4934 7.31396 16.3734 7.05569C16.2706 6.83433 16.0889 6.65606 15.9572 6.52735C15.6491 6.22629 15.4687 6.04665 15.4687 5.75627C15.4687 5.61525 15.5119 5.53023 15.5755 5.46036C15.6505 5.37782 15.7671 5.30334 15.9351 5.22228C16.0053 5.18845 16.0765 5.15703 16.1534 5.12308L16.1956 5.10444C16.2853 5.06475 16.3835 5.02064 16.4766 4.97165C16.5317 4.94261 16.592 4.90849 16.6526 4.86765C18.9523 5.70776 20.8223 7.44071 21.8429 9.64693C21.8306 9.64543 21.8183 9.64395 21.8059 9.6425C21.3554 9.58967 20.9289 9.58049 20.5434 9.71202C20.1389 9.85002 19.8267 10.1254 19.5716 10.5442C19.4267 10.7821 19.2346 11.0271 19.0217 11.2987L19.0217 11.2987C18.9847 11.3459 18.9471 11.3939 18.9089 11.4428C18.6622 11.7594 18.3966 12.1121 18.2192 12.4769C18.0402 12.8451 17.9281 13.2715 18.0514 13.7183C18.1748 14.1655 18.5106 14.5494 19.0454 14.8838C19.163 14.9574 19.3122 15.0101 19.419 15.0479L19.419 15.0479L19.4429 15.0563C19.571 15.1019 19.6739 15.14 19.7605 15.1885C19.844 15.2353 19.8863 15.2779 19.9086 15.3166C19.9278 15.3498 19.9525 15.4144 19.9347 15.548C19.8783 15.9708 19.8529 16.3696 19.8732 16.7115C19.8927 17.0395 19.957 17.3754 20.1317 17.6211C20.2713 17.8177 20.2733 18.0956 20.26 18.5058L20.2596 18.5174C20.2539 18.6905 20.2468 18.9085 20.2852 19.1001C20.3113 19.2303 20.3635 19.3726 20.4635 19.4936ZM22.076 19.5597C23.2879 17.8477 24 15.757 24 13.5C24 7.70101 19.299 3 13.5 3C7.70101 3 3 7.70101 3 13.5C3 17.433 5.16244 20.861 8.36323 22.6599V22.7647H8.55444C10.0281 23.553 11.7119 24 13.5 24C17.0098 24 20.1174 22.2779 22.0239 19.6326C22.0446 19.6109 22.0636 19.5877 22.081 19.5632L22.076 19.5597ZM8.72911 21.3532C8.74719 21.3117 8.76457 21.272 8.78077 21.235C8.80602 21.1774 8.82836 21.1263 8.84585 21.0855C8.86717 21.0357 8.8899 20.9818 8.91397 20.9247L8.91399 20.9247L8.91403 20.9246C9.01098 20.6947 9.1297 20.4132 9.26632 20.1402C9.43576 19.8016 9.65068 19.4379 9.92195 19.1681C10.1163 18.9749 10.388 18.8822 10.6381 18.8284C10.8978 18.7726 11.1993 18.7462 11.5078 18.7292C11.7006 18.7185 11.8971 18.7113 12.0954 18.7039C12.5551 18.6869 13.0249 18.6696 13.4839 18.6087C13.7871 18.5685 13.9493 18.4982 14.032 18.4401C14.103 18.3903 14.1219 18.3461 14.1301 18.305C14.1413 18.2493 14.1368 18.1683 14.1063 18.0548C14.0784 17.9511 14.0379 17.8507 13.9942 17.7423L13.9818 17.7115C13.9481 17.6277 13.9055 17.5433 13.8585 17.4503L13.8585 17.4503C13.6987 17.1337 13.4891 16.7185 13.414 15.8969C13.3592 15.2975 13.5778 14.7013 13.7695 14.2413C13.8121 14.1392 13.852 14.0471 13.8892 13.961C13.9431 13.8364 13.9916 13.7244 14.0351 13.6127C14.1092 13.422 14.1337 13.3148 14.1337 13.2609C14.1337 13.2035 14.1112 13.093 14.044 12.9425C13.9794 12.7981 13.8847 12.6419 13.7698 12.4991C13.5216 12.1906 13.2622 12.0408 13.0848 12.0408C12.7106 12.0408 12.1477 12.1871 11.6042 12.4001C11.3386 12.5041 11.0902 12.6192 10.8869 12.73C10.6764 12.8448 10.5388 12.9419 10.475 13.0043C9.36283 14.093 8.52425 14.6035 7.81848 14.6439C7.05064 14.6878 6.58799 14.1785 6.26181 13.7292C6.17784 13.6136 6.09703 13.4933 6.02025 13.379L6.01491 13.371C5.93874 13.2575 5.86629 13.1496 5.79171 13.0458C5.63786 12.8316 5.49125 12.6588 5.33139 12.5358C5.1782 12.4179 5.01373 12.3465 4.81303 12.3339C4.69373 12.3264 4.55107 12.3391 4.37948 12.385C4.33526 12.7505 4.3125 13.1226 4.3125 13.5C4.3125 16.827 6.08094 19.741 8.72911 21.3532ZM21.0428 18.7471C21.0425 18.6865 21.0443 18.6155 21.0471 18.5314L21.0488 18.4797C21.0609 18.1363 21.0799 17.5961 20.7736 17.165C20.7303 17.1041 20.6764 16.9523 20.6593 16.6648C20.643 16.3913 20.6627 16.0469 20.7153 15.652C20.752 15.3767 20.7109 15.1312 20.5906 14.9228C20.4734 14.7199 20.3025 14.5895 20.1455 14.5015C19.9929 14.416 19.8295 14.358 19.7094 14.3153L19.7065 14.3143C19.5657 14.2642 19.4997 14.2391 19.4629 14.2162C19.0245 13.9419 18.8628 13.6984 18.8105 13.5089C18.7581 13.3189 18.7923 13.0992 18.9274 12.8213C19.0641 12.5401 19.2806 12.2469 19.53 11.927C19.5647 11.8825 19.6001 11.8374 19.636 11.7917L19.636 11.7917L19.636 11.7917C19.847 11.5228 20.0729 11.2351 20.2442 10.9539C20.4249 10.6572 20.603 10.5238 20.7977 10.4573C21.0114 10.3844 21.2931 10.3753 21.7142 10.4246C21.8823 10.4444 22.0402 10.4686 22.1847 10.4947C22.5105 11.4364 22.6875 12.4475 22.6875 13.5C22.6875 15.4507 22.0795 17.2595 21.0428 18.7471ZM15.539 4.53955C14.8832 4.39095 14.2007 4.3125 13.5 4.3125C11.2543 4.3125 9.19675 5.11823 7.60072 6.45638C7.62938 7.06295 7.7435 7.45344 7.88555 7.69948C8.03972 7.96654 8.23644 8.082 8.45854 8.12642C8.69606 8.17392 9.03345 8.09625 9.53319 7.91522C9.65537 7.87096 9.78618 7.82096 9.9235 7.76847L9.92353 7.76846C10.3034 7.62327 10.7332 7.45901 11.1684 7.34428C11.6415 7.21956 12.1592 7.2601 12.6427 7.34431C12.9856 7.40403 13.3442 7.4927 13.6781 7.57527L13.6781 7.57528C13.812 7.6084 13.942 7.64054 14.0653 7.66943C14.5202 7.77595 14.8895 7.83965 15.1724 7.81701C15.4294 7.79643 15.5597 7.7126 15.6416 7.54893C15.6883 7.45557 15.6746 7.42058 15.6592 7.38739C15.6266 7.31731 15.554 7.23443 15.4068 7.0906C15.3905 7.0746 15.3731 7.05789 15.355 7.04043C15.0968 6.79155 14.6812 6.39108 14.6812 5.75627C14.6812 5.41244 14.8021 5.14019 14.9929 4.93048C15.1556 4.75156 15.3586 4.63004 15.539 4.53955Z" fill="white"/>
</svg>
